<svg width="905" height="905" viewBox="0 0 905 905" fill="none" xmlns="http://www.w3.org/2000/svg">
<g clip-path="url(#clip0_1_2440)">
<path d="M0 256C0 166.392 0 121.587 17.439 87.3615C32.7787 57.2556 57.2556 32.7787 87.3615 17.439C121.587 0 166.392 0 256 0H649C738.608 0 783.413 0 817.638 17.439C847.744 32.7787 872.221 57.2556 887.561 87.3615C905 121.587 905 166.392 905 256V649C905 738.608 905 783.413 887.561 817.638C872.221 847.744 847.744 872.221 817.638 887.561C783.413 905 738.608 905 649 905H256C166.392 905 121.587 905 87.3615 887.561C57.2556 872.221 32.7787 847.744 17.439 817.638C0 783.413 0 738.608 0 649V256Z" fill="#201F1E"/>
<path d="M425.567 270.828C439.904 254.391 465.097 254.391 479.433 270.828L510.066 305.948C516.459 313.278 525.461 317.697 535.068 318.223L581.1 320.743C602.643 321.923 618.351 342.004 614.685 363.68L606.852 409.995C605.217 419.66 607.44 429.591 613.026 437.576L639.795 475.839C652.322 493.747 646.716 518.788 627.808 529.38L587.407 552.013C578.976 556.737 572.747 564.7 570.106 574.132L557.453 619.325C551.531 640.476 528.832 651.62 508.921 643.153L466.375 625.061C457.496 621.285 447.505 621.285 438.626 625.061L396.079 643.153C376.168 651.62 353.469 640.476 347.547 619.325L334.894 574.132C332.253 564.7 326.024 556.737 317.593 552.013L277.192 529.38C258.284 518.788 252.678 493.747 265.205 475.839L291.974 437.576C297.561 429.591 299.783 419.66 298.149 409.995L290.315 363.68C286.649 342.004 302.357 321.923 323.901 320.743L369.933 318.223C379.539 317.697 388.541 313.278 394.934 305.948L425.567 270.828Z" fill="white"/>
<path d="M225.776 452.5V457.24L207.744 483.022C191.407 506.383 198.718 539.049 223.376 552.867L225.776 554.212V1151.19H133C59.5461 1151.19 0 1091.64 0 1018.19V585.5C0 512.046 59.5461 452.5 133 452.5H225.776Z" fill="#86CEFF"/>
<path d="M276.064 582.393C287.06 588.554 295.183 598.943 298.627 611.246L315.129 670.202C322.852 697.794 352.453 712.332 378.421 701.286L433.906 677.685C439.625 675.252 445.699 674.023 451.776 673.993V1150.75H226V554.337L276.064 582.393ZM229.092 452.5L226 456.92V452.5H229.092Z" fill="#FFC39B"/>
<path d="M677.776 1150.75H452V673.991C458.152 673.991 464.305 675.222 470.095 677.685L525.579 701.286C551.547 712.332 581.148 697.794 588.871 670.202L605.373 611.246C608.817 598.943 616.94 588.554 627.936 582.393L677.776 554.463V1150.75ZM677.776 452.5V456.6L674.909 452.5H677.776Z" fill="#FFE480"/>
<path d="M770.776 452.5C844.23 452.5 903.776 512.046 903.776 585.5V1018.19C903.776 1091.64 844.23 1151.19 770.776 1151.19H678V554.337L680.624 552.867C705.282 539.049 712.593 506.383 696.256 483.022L678 456.92V452.5H770.776Z" fill="#FFB9DA"/>
</g>
<defs>
<clipPath id="clip0_1_2440">
<path d="M0 256C0 166.392 0 121.587 17.439 87.3615C32.7787 57.2556 57.2556 32.7787 87.3615 17.439C121.587 0 166.392 0 256 0H649C738.608 0 783.413 0 817.638 17.439C847.744 32.7787 872.221 57.2556 887.561 87.3615C905 121.587 905 166.392 905 256V649C905 738.608 905 783.413 887.561 817.638C872.221 847.744 847.744 872.221 817.638 887.561C783.413 905 738.608 905 649 905H256C166.392 905 121.587 905 87.3615 887.561C57.2556 872.221 32.7787 847.744 17.439 817.638C0 783.413 0 738.608 0 649V256Z" fill="white"/>
</clipPath>
</defs>
</svg>
