<svg width="1608" height="512" viewBox="0 0 1608 512" fill="none" xmlns="http://www.w3.org/2000/svg">
<g clip-path="url(#clip0_1_2418)">
<path d="M0 189.125C0 158.628 0 143.38 5.93503 131.732C11.1556 121.486 19.4859 113.156 29.7319 107.935C41.38 102 56.6283 102 87.1249 102H220.875C251.372 102 266.62 102 278.268 107.935C288.514 113.156 296.844 121.486 302.065 131.732C308 143.38 308 158.628 308 189.125V322.875C308 353.372 308 368.62 302.065 380.268C296.844 390.514 288.514 398.844 278.268 404.065C266.62 410 251.372 410 220.875 410H87.1249C56.6283 410 41.38 410 29.7319 404.065C19.4859 398.844 11.1556 390.514 5.93503 380.268C0 368.62 0 353.372 0 322.875V189.125Z" fill="#201F1E"/>
<path d="M144.834 194.171C149.713 188.577 158.287 188.577 163.166 194.171L173.592 206.124C175.767 208.618 178.831 210.122 182.1 210.301L197.767 211.159C205.098 211.56 210.444 218.395 209.197 225.772L206.531 241.534C205.974 244.824 206.731 248.203 208.632 250.921L217.742 263.943C222.006 270.038 220.098 278.56 213.663 282.165L199.913 289.868C197.044 291.475 194.924 294.185 194.025 297.395L189.719 312.776C187.703 319.974 179.978 323.767 173.202 320.885L158.722 314.728C155.7 313.443 152.3 313.443 149.278 314.728L134.798 320.885C128.022 323.767 120.297 319.974 118.281 312.776L113.975 297.395C113.076 294.185 110.956 291.475 108.087 289.868L94.337 282.165C87.902 278.56 85.9941 270.038 90.2576 263.943L99.368 250.921C101.269 248.203 102.026 244.824 101.469 241.534L98.8033 225.772C97.5556 218.395 102.902 211.56 110.233 211.159L125.9 210.301C129.169 210.122 132.233 208.618 134.408 206.124L144.834 194.171Z" fill="white"/>
<path d="M76.8389 256V257.613L70.7021 266.388C65.142 274.338 67.6305 285.456 76.0225 290.158L76.8389 290.615V493.785H45.2637C20.2652 493.785 0.000103296 473.52 0 448.521V301.264C0.000225327 276.265 20.2653 256 45.2637 256H76.8389Z" fill="#86CEFF"/>
<path d="M93.9531 300.207C97.6952 302.304 100.461 305.839 101.633 310.026L107.248 330.091C109.876 339.481 119.951 344.429 128.788 340.67L147.672 332.638C149.618 331.81 151.686 331.39 153.754 331.38V493.637H76.915V290.658L93.9531 300.207ZM77.9668 256L76.915 257.504V256H77.9668Z" fill="#FFC39B"/>
<path d="M230.669 493.637H153.83V331.38C155.924 331.38 158.018 331.8 159.988 332.638L178.871 340.67C187.708 344.429 197.784 339.481 200.412 330.091L206.027 310.026C207.199 305.839 209.964 302.304 213.706 300.207L230.669 290.7V493.637ZM230.669 256V257.396L229.693 256H230.669Z" fill="#FFE480"/>
<path d="M262.319 256C287.317 256 307.583 276.265 307.583 301.264V448.521C307.583 473.52 287.317 493.785 262.319 493.785H230.745V290.658L231.637 290.158C240.029 285.456 242.518 274.338 236.958 266.388L230.745 257.504V256H262.319Z" fill="#FFB9DA"/>
</g>
<path d="M461.725 360.513C459.342 360.513 457.5 359.971 456.2 358.888C454.9 358.021 454.25 357.046 454.25 355.962C454.25 354.228 455.008 352.928 456.525 352.061C458.042 350.977 459.558 350.219 461.075 349.785C468.875 347.835 474.617 345.451 478.3 342.634C481.983 339.6 483.825 334.723 483.825 328.005V178.469C483.825 173.484 483.175 169.691 481.875 167.091C480.792 164.49 478.733 162.54 475.7 161.239C472.883 159.722 468.658 158.422 463.025 157.338C457.392 156.255 454.575 153.979 454.575 150.512C454.575 149.211 455.333 148.236 456.85 147.586C458.367 146.719 460.1 146.286 462.05 146.286C467.467 146.286 472.558 146.394 477.325 146.611C482.308 146.828 487.075 147.044 491.625 147.261C496.175 147.478 500.725 147.586 505.275 147.586C510.258 147.586 515.242 147.478 520.225 147.261C525.425 147.044 530.625 146.828 535.825 146.611C541.242 146.394 546.442 146.286 551.425 146.286C553.592 146.286 555.325 146.719 556.625 147.586C557.925 148.236 558.575 149.32 558.575 150.837C558.575 152.571 557.817 153.979 556.3 155.063C555 155.93 553.05 156.688 550.45 157.338C542 159.506 535.717 161.89 531.6 164.49C527.7 166.874 525.75 171.209 525.75 177.493V326.055C525.75 332.34 527.158 336.999 529.975 340.033C532.792 342.85 538.1 344.259 545.9 344.259H581.325C586.308 344.259 590.858 343.392 594.975 341.658C599.092 339.925 602.45 337.758 605.05 335.157C608.95 331.689 612.2 328.005 614.8 324.104C617.4 320.203 619.892 315.652 622.275 310.451C623.792 307.2 625.2 304.708 626.5 302.974C627.8 301.24 629.1 300.373 630.4 300.373C631.917 300.373 633 301.132 633.65 302.649C634.3 303.949 634.625 305.358 634.625 306.875C634.625 307.092 634.517 307.742 634.3 308.825C634.083 309.909 633.975 310.776 633.975 311.426C632.242 317.711 630.725 323.129 629.425 327.68C628.342 332.231 627.367 336.674 626.5 341.008C625.85 345.126 625.2 349.677 624.55 354.662C624.333 356.179 623.9 357.587 623.25 358.888C622.6 359.971 621.3 360.513 619.35 360.513C612.85 360.513 605.05 360.405 595.95 360.188C586.85 359.971 577.208 359.755 567.025 359.538C556.842 359.538 546.55 359.43 536.15 359.213C525.967 358.996 516.325 358.888 507.225 358.888C502.458 358.888 496.933 358.996 490.65 359.213C484.583 359.43 478.842 359.646 473.425 359.863C468.008 360.296 464.108 360.513 461.725 360.513Z" fill="white"/>
<path d="M730.487 365.389C728.754 365.389 727.887 364.414 727.887 362.464C727.887 360.08 728.104 356.721 728.537 352.386C729.187 348.052 729.512 344.584 729.512 341.984C729.512 341.333 729.404 340.792 729.187 340.358C729.187 339.708 729.187 339.275 729.187 339.058C722.471 346.426 714.562 352.386 705.462 356.937C696.579 361.488 687.154 363.764 677.187 363.764C670.254 363.764 663.971 361.922 658.337 358.238C652.921 354.553 648.587 349.46 645.337 342.959C642.304 336.457 640.787 328.872 640.787 320.203V257.788C640.787 252.803 639.812 248.903 637.862 246.085C635.912 243.051 632.446 240.776 627.462 239.258C626.162 239.042 624.971 238.5 623.887 237.633C623.021 236.766 622.587 235.466 622.587 233.732C622.587 231.998 623.021 230.698 623.887 229.831C624.971 228.964 626.162 228.423 627.462 228.206C636.129 227.772 643.604 227.014 649.887 225.93C656.171 224.63 662.887 223.113 670.037 221.379C670.904 220.946 671.771 220.621 672.637 220.404C673.504 220.187 674.371 220.079 675.237 220.079C678.054 220.079 679.354 221.596 679.137 224.63C678.487 229.614 677.946 233.84 677.512 237.308C677.079 240.559 676.862 244.676 676.862 249.661V312.401C676.862 317.603 677.837 322.262 679.787 326.38C681.737 330.497 684.446 333.748 687.912 336.132C691.379 338.516 695.171 339.816 699.287 340.033C703.404 340.033 707.196 339.6 710.662 338.733C714.346 337.866 717.921 335.915 721.387 332.881C723.121 331.581 725.071 329.197 727.237 325.73C729.404 322.045 730.487 317.278 730.487 311.426V256.813C730.487 252.695 729.512 249.444 727.562 247.06C725.829 244.46 723.446 242.509 720.412 241.209C717.596 239.909 714.671 239.258 711.637 239.258C709.254 239.042 707.412 238.5 706.112 237.633C704.812 236.766 704.162 235.032 704.162 232.432C704.162 230.265 704.921 228.748 706.437 227.881C707.954 227.014 709.687 226.58 711.637 226.58C721.171 225.93 728.862 225.388 734.712 224.955C740.562 224.522 745.437 223.98 749.337 223.33C753.454 222.679 757.462 221.813 761.362 220.729C762.012 220.512 762.662 220.404 763.312 220.404C764.179 220.187 764.829 220.079 765.262 220.079C768.296 220.079 769.812 221.271 769.812 223.655C769.812 224.305 769.704 225.063 769.487 225.93C769.487 226.58 769.271 227.339 768.837 228.206C768.621 228.856 768.296 230.698 767.862 233.732C767.646 236.766 767.321 239.909 766.887 243.159C766.671 246.41 766.562 248.903 766.562 250.636V326.055C766.562 331.256 767.104 334.832 768.187 336.782C769.487 338.733 770.896 339.708 772.412 339.708C773.712 339.708 775.554 339.708 777.937 339.708C780.537 339.491 782.379 339.383 783.462 339.383C785.196 339.383 786.604 339.816 787.687 340.683C788.771 341.55 789.312 342.959 789.312 344.909C789.312 346.86 788.879 348.377 788.012 349.46C787.362 350.327 786.062 350.869 784.112 351.086C774.362 351.953 765.696 353.686 758.112 356.287C750.529 358.671 743.921 361.055 738.287 363.439C736.987 363.872 735.579 364.306 734.062 364.739C732.762 365.173 731.571 365.389 730.487 365.389Z" fill="white"/>
<path d="M784.752 359.863C783.235 359.863 781.719 359.538 780.202 358.888C778.902 358.238 778.252 357.154 778.252 355.637C778.252 353.903 779.01 352.603 780.527 351.736C782.044 350.869 783.777 350.111 785.727 349.46C788.76 348.377 791.685 347.185 794.502 345.885C797.319 344.367 798.727 341.442 798.727 337.107V264.29C798.727 259.305 798.077 254.971 796.777 251.286C795.477 247.385 792.444 245.11 787.677 244.46C786.81 244.243 786.052 243.81 785.402 243.159C784.752 242.293 784.427 240.884 784.427 238.933C784.427 236.333 785.402 234.707 787.352 234.057C792.986 232.757 798.294 231.24 803.277 229.506C808.477 227.772 813.352 225.822 817.902 223.655C822.669 221.487 827.002 219.32 830.902 217.153C831.552 216.72 832.202 216.286 832.852 215.853C833.502 215.419 834.152 215.203 834.802 215.203C836.535 215.203 837.402 216.286 837.402 218.453C837.402 220.187 837.077 223.221 836.427 227.556C835.994 231.673 835.777 235.249 835.777 238.283C835.777 240.45 835.994 241.751 836.427 242.184H837.077C843.144 236.333 850.077 231.24 857.877 226.905C865.894 222.571 875.319 220.404 886.152 220.404C893.085 220.404 899.26 222.571 904.677 226.905C910.31 231.023 914.644 236.875 917.677 244.46H918.977C925.477 237.091 932.952 231.24 941.402 226.905C949.852 222.571 959.169 220.404 969.352 220.404C976.285 220.404 982.352 222.463 987.552 226.58C992.752 230.481 996.869 235.899 999.902 242.834C1002.94 249.769 1004.45 257.68 1004.45 266.565V337.432C1004.45 341.767 1005.75 344.584 1008.35 345.885C1010.95 347.185 1013.88 348.377 1017.13 349.46C1019.08 350.111 1020.7 350.869 1022 351.736C1023.52 352.603 1024.28 353.903 1024.28 355.637C1024.28 356.937 1023.74 358.021 1022.65 358.888C1021.57 359.538 1020.05 359.863 1018.1 359.863C1013.77 359.863 1009.87 359.646 1006.4 359.213C1003.15 358.996 1000.01 358.779 996.977 358.563C993.944 358.346 990.477 358.238 986.577 358.238C982.894 358.238 979.536 358.346 976.502 358.563C973.685 358.779 970.76 358.996 967.727 359.213C964.694 359.646 961.01 359.863 956.677 359.863C954.944 359.863 953.535 359.538 952.452 358.888C951.369 358.021 950.827 356.937 950.827 355.637C950.827 353.903 951.477 352.603 952.777 351.736C954.077 350.869 955.702 350.111 957.652 349.46C960.685 348.594 963.177 347.51 965.127 346.21C967.077 344.693 968.052 342.092 968.052 338.408V271.441C968.052 266.023 967.185 261.256 965.452 257.138C963.719 253.02 961.227 249.769 957.977 247.385C954.944 244.785 951.477 243.485 947.577 243.485C943.894 243.485 940.102 244.135 936.202 245.435C932.519 246.519 928.944 248.469 925.477 251.286C921.361 254.754 919.302 260.389 919.302 268.191V337.432C919.302 341.767 920.385 344.693 922.552 346.21C924.935 347.51 927.752 348.594 931.002 349.46C932.736 350.111 934.252 350.869 935.552 351.736C937.069 352.603 937.827 353.903 937.827 355.637C937.827 356.937 937.177 358.021 935.877 358.888C934.794 359.538 933.494 359.863 931.977 359.863C927.644 359.863 923.852 359.646 920.602 359.213C917.569 358.996 914.644 358.779 911.827 358.563C909.01 358.346 905.652 358.238 901.752 358.238C898.069 358.238 894.71 358.346 891.677 358.563C888.861 358.779 885.827 358.996 882.577 359.213C879.544 359.646 875.86 359.863 871.527 359.863C870.01 359.863 868.602 359.538 867.302 358.888C866.219 358.021 865.677 356.937 865.677 355.637C865.677 353.903 866.327 352.603 867.627 351.736C869.144 350.869 870.769 350.111 872.502 349.46C875.535 348.594 878.027 347.51 879.977 346.21C882.144 344.693 883.227 342.092 883.227 338.408V271.441C883.227 266.023 882.361 261.256 880.627 257.138C878.894 253.02 876.402 249.769 873.152 247.385C870.119 244.785 866.652 243.485 862.752 243.485C859.069 243.485 855.385 244.135 851.702 245.435C848.019 246.519 844.227 248.469 840.327 251.286C836.644 254.104 834.802 259.522 834.802 267.54V337.432C834.802 341.333 835.669 344.042 837.402 345.559C839.352 347.076 841.952 348.377 845.202 349.46C846.935 350.111 848.452 350.869 849.752 351.736C851.269 352.603 852.027 353.903 852.027 355.637C852.027 356.937 851.485 358.021 850.402 358.888C849.319 359.538 847.91 359.863 846.177 359.863C841.844 359.863 838.16 359.646 835.127 359.213C832.094 358.996 829.169 358.779 826.352 358.563C823.535 358.346 820.177 358.238 816.277 358.238C812.594 358.238 809.127 358.346 805.877 358.563C802.844 358.779 799.594 358.996 796.127 359.213C792.877 359.646 789.085 359.863 784.752 359.863Z" fill="white"/>
<path d="M1085.66 363.439C1072.88 363.439 1061.39 360.621 1051.21 354.987C1041.03 349.135 1032.9 341.117 1026.84 330.931C1020.77 320.745 1017.74 309.259 1017.74 296.472C1017.74 286.503 1019.69 276.968 1023.59 267.865C1027.49 258.763 1032.79 250.636 1039.51 243.485C1046.23 236.333 1054.14 230.698 1063.24 226.58C1072.34 222.246 1082.09 220.079 1092.49 220.079C1105.7 220.079 1117.51 223.221 1127.91 229.506C1138.53 235.574 1146.98 243.701 1153.26 253.887C1159.54 264.073 1162.69 275.234 1162.69 287.37C1162.69 300.807 1159.76 313.377 1153.91 325.079C1148.28 336.566 1139.72 345.885 1128.24 353.036C1116.97 359.971 1102.78 363.439 1085.66 363.439ZM1092.16 350.761C1097.58 350.761 1102.34 349.677 1106.46 347.51C1110.79 345.343 1114.26 341.984 1116.86 337.432C1119.46 332.881 1121.19 326.922 1122.06 319.553C1123.14 311.968 1123.69 303.841 1123.69 295.172C1123.69 283.686 1122.17 273.283 1119.14 263.965C1116.1 254.646 1111.88 247.169 1106.46 241.534C1101.04 235.899 1094.65 233.082 1087.29 233.082C1083.17 233.082 1079.38 233.84 1075.91 235.358C1072.66 236.658 1069.63 238.933 1066.81 242.184C1062.91 246.735 1060.2 253.02 1058.69 261.039C1057.39 268.841 1056.74 277.943 1056.74 288.345C1056.74 298.748 1058.25 308.717 1061.29 318.253C1064.54 327.788 1068.76 335.59 1073.96 341.658C1079.38 347.727 1085.44 350.761 1092.16 350.761Z" fill="white"/>
<path d="M1164.64 359.863C1162.9 359.863 1161.39 359.538 1160.09 358.888C1158.79 358.021 1158.14 356.937 1158.14 355.637C1158.14 353.903 1158.79 352.603 1160.09 351.736C1161.6 350.869 1163.44 350.111 1165.61 349.46C1170.16 348.16 1173.3 346.643 1175.04 344.909C1176.99 342.959 1177.96 340.358 1177.96 337.107V263.965C1177.96 258.98 1177.2 254.862 1175.69 251.611C1174.39 248.144 1171.46 245.868 1166.91 244.785C1166.04 244.351 1165.18 243.81 1164.31 243.159C1163.44 242.293 1163.01 241.101 1163.01 239.584C1163.01 236.766 1164.2 235.032 1166.59 234.382C1173.09 232.649 1180.13 230.373 1187.71 227.556C1195.29 224.522 1201.69 221.596 1206.89 218.778C1207.97 218.128 1209.16 217.478 1210.46 216.828C1211.76 216.178 1212.74 215.853 1213.39 215.853C1215.12 215.853 1215.99 216.936 1215.99 219.104C1215.99 219.97 1215.88 221.921 1215.66 224.955C1215.66 227.989 1215.55 231.348 1215.34 235.032C1215.34 238.5 1215.23 241.642 1215.01 244.46C1215.01 245.76 1215.34 246.41 1215.99 246.41C1219.45 241.859 1223.35 237.633 1227.69 233.732C1232.02 229.831 1236.57 226.58 1241.34 223.98C1246.32 221.379 1251.3 220.079 1256.29 220.079C1262.57 220.079 1267.23 221.379 1270.26 223.98C1273.51 226.58 1275.14 229.831 1275.14 233.732C1275.14 236.766 1274.27 240.017 1272.54 243.485C1271.02 246.952 1268.96 249.986 1266.36 252.587C1263.98 254.971 1261.27 256.163 1258.24 256.163C1256.5 256.163 1254.66 255.838 1252.71 255.187C1250.76 254.32 1248.81 253.345 1246.86 252.262C1244.91 251.395 1242.85 250.528 1240.69 249.661C1238.74 248.794 1236.89 248.361 1235.16 248.361C1229.74 248.361 1224.87 250.42 1220.54 254.537C1216.2 258.438 1214.04 266.24 1214.04 277.943V335.157C1214.04 339.058 1215.44 342.092 1218.26 344.259C1221.08 346.21 1225.41 348.052 1231.26 349.785C1233.64 350.436 1235.38 351.194 1236.46 352.061C1237.76 352.711 1238.41 353.903 1238.41 355.637C1238.41 358.454 1236.46 359.863 1232.56 359.863C1226.06 359.863 1219.89 359.538 1214.04 358.888C1208.4 358.454 1202.77 358.238 1197.14 358.238C1193.45 358.238 1189.88 358.346 1186.41 358.563C1183.16 358.779 1179.8 358.996 1176.34 359.213C1172.87 359.646 1168.97 359.863 1164.64 359.863Z" fill="white"/>
<path d="M1268.21 359.863C1266.48 359.863 1265.07 359.538 1263.99 358.888C1262.9 358.021 1262.36 356.937 1262.36 355.637C1262.36 353.903 1263.01 352.603 1264.31 351.736C1265.61 350.869 1267.13 350.219 1268.86 349.785C1274.06 348.485 1277.75 347.076 1279.91 345.559C1282.3 344.042 1283.49 341.442 1283.49 337.758V267.215C1283.49 260.28 1282.4 255.079 1280.24 251.611C1278.07 248.144 1274.39 245.977 1269.19 245.11C1268.1 244.893 1267.24 244.351 1266.59 243.485C1265.94 242.401 1265.61 241.209 1265.61 239.909C1265.61 236.875 1266.8 235.249 1269.19 235.032C1279.59 232.865 1288.58 229.94 1296.16 226.255C1303.96 222.354 1309.92 219.32 1314.04 217.153C1317.07 215.636 1319.02 214.878 1319.89 214.878C1322.27 214.878 1323.46 215.961 1323.46 218.128C1323.25 221.162 1322.81 225.388 1322.16 230.806C1321.51 236.008 1320.86 241.642 1320.21 247.711C1319.78 253.562 1319.56 259.088 1319.56 264.29V337.432C1319.56 340.683 1320.75 343.176 1323.14 344.909C1325.52 346.643 1329.31 348.268 1334.51 349.785C1336.25 350.436 1337.76 351.194 1339.06 352.061C1340.36 352.711 1341.01 353.903 1341.01 355.637C1341.01 358.238 1339.17 359.538 1335.49 359.538C1331.37 359.538 1327.36 359.43 1323.46 359.213C1319.78 358.996 1316.1 358.779 1312.41 358.563C1308.95 358.346 1305.26 358.238 1301.36 358.238C1297.68 358.238 1294.1 358.346 1290.64 358.563C1287.17 358.779 1283.6 358.996 1279.91 359.213C1276.45 359.646 1272.55 359.863 1268.21 359.863Z" fill="white"/>
<path d="M1365.48 363.439C1360.28 363.439 1355.3 362.03 1350.53 359.213C1345.98 356.395 1342.3 352.711 1339.48 348.16C1336.67 343.609 1335.26 338.949 1335.26 334.182C1335.26 326.813 1337.43 320.853 1341.76 316.302C1346.09 311.534 1352.59 307.308 1361.26 303.624L1391.48 290.621C1395.82 288.887 1398.42 287.262 1399.28 285.745C1400.37 284.228 1400.91 281.41 1400.91 277.293L1401.56 258.113C1401.78 252.045 1400.48 247.169 1397.66 243.485C1395.06 239.8 1391.05 237.958 1385.63 237.958C1382.82 237.958 1379.89 238.5 1376.86 239.584C1373.83 240.667 1371.44 242.076 1369.71 243.81C1368.84 244.676 1368.19 245.868 1367.76 247.385C1367.54 248.686 1367.43 249.986 1367.43 251.286C1367.43 252.37 1367.43 253.779 1367.43 255.512C1367.65 257.029 1367.76 258.438 1367.76 259.738C1367.76 261.039 1366.13 262.664 1362.88 264.615C1359.63 266.565 1355.95 268.299 1351.83 269.816C1347.72 271.333 1344.25 272.091 1341.43 272.091C1339.92 272.091 1338.73 271.55 1337.86 270.466C1336.99 269.382 1336.56 268.082 1336.56 266.565C1336.56 263.098 1337.64 259.63 1339.81 256.163C1342.19 252.478 1345.88 248.577 1350.86 244.46C1356.28 239.909 1362.23 235.899 1368.73 232.432C1375.23 228.748 1381.52 225.822 1387.58 223.655C1393.87 221.487 1399.28 220.404 1403.83 220.404C1414.23 220.404 1422.58 223.871 1428.86 230.806C1435.14 237.525 1438.18 246.41 1437.96 257.463L1436.33 327.03C1436.12 331.798 1436.98 335.807 1438.93 339.058C1441.1 342.309 1443.7 343.934 1446.73 343.934C1451.28 343.934 1454.97 342.634 1457.78 340.033C1458.65 339.166 1459.41 338.733 1460.06 338.733C1461.14 338.733 1462.01 339.166 1462.66 340.033C1463.53 340.683 1463.96 341.55 1463.96 342.634C1463.96 345.018 1462.23 347.943 1458.76 351.411C1454.86 355.312 1450.63 358.238 1446.08 360.188C1441.75 362.355 1437.42 363.439 1433.08 363.439C1421.6 363.439 1412.28 357.479 1405.13 345.559H1404.16C1397.01 351.844 1390.4 356.395 1384.33 359.213C1378.48 362.03 1372.2 363.439 1365.48 363.439ZM1383.36 343.934C1386.39 343.934 1388.99 343.501 1391.16 342.634C1393.33 341.55 1395.17 340.141 1396.68 338.408C1397.55 337.324 1398.2 336.024 1398.63 334.507C1399.28 332.99 1399.72 330.823 1399.93 328.005L1400.58 307.2C1400.8 305.033 1400.58 303.624 1399.93 302.974C1399.28 302.107 1398.53 301.674 1397.66 301.674C1397.23 301.674 1396.58 301.782 1395.71 301.999C1394.84 301.999 1393.87 302.324 1392.78 302.974C1384.77 306.225 1379.03 309.692 1375.56 313.377C1372.09 317.061 1370.36 321.829 1370.36 327.68C1370.36 333.532 1371.77 337.758 1374.58 340.358C1377.4 342.742 1380.33 343.934 1383.36 343.934Z" fill="white"/>
<path d="M1296.77 149.137C1298.58 147.068 1301.74 147.068 1303.54 149.137L1307.39 153.556C1308.19 154.478 1309.33 155.035 1310.53 155.101L1316.32 155.418C1319.02 155.566 1321 158.093 1320.54 160.821L1319.55 166.649C1319.35 167.865 1319.63 169.115 1320.33 170.12L1323.69 174.935C1325.27 177.188 1324.56 180.339 1322.18 181.672L1317.11 184.52C1316.05 185.115 1315.27 186.117 1314.94 187.304L1313.35 192.991C1312.6 195.652 1309.75 197.055 1307.25 195.989L1301.9 193.712C1300.79 193.237 1299.53 193.237 1298.42 193.712L1293.07 195.989C1290.57 197.055 1287.72 195.652 1286.97 192.991L1285.38 187.304C1285.05 186.117 1284.27 185.115 1283.21 184.52L1278.13 181.672C1275.76 180.339 1275.05 177.188 1276.63 174.935L1279.99 170.12C1280.69 169.115 1280.97 167.865 1280.77 166.649L1279.78 160.821C1279.32 158.093 1281.29 155.566 1284 155.418L1289.78 155.101C1290.99 155.035 1292.12 154.478 1292.93 153.556L1296.77 149.137Z" fill="white"/>
<defs>
<clipPath id="clip0_1_2418">
<path d="M0 189.125C0 158.628 0 143.38 5.93503 131.732C11.1556 121.486 19.4859 113.156 29.7319 107.935C41.38 102 56.6283 102 87.1249 102H220.875C251.372 102 266.62 102 278.268 107.935C288.514 113.156 296.844 121.486 302.065 131.732C308 143.38 308 158.628 308 189.125V322.875C308 353.372 308 368.62 302.065 380.268C296.844 390.514 288.514 398.844 278.268 404.065C266.62 410 251.372 410 220.875 410H87.1249C56.6283 410 41.38 410 29.7319 404.065C19.4859 398.844 11.1556 390.514 5.93503 380.268C0 368.62 0 353.372 0 322.875V189.125Z" fill="white"/>
</clipPath>
</defs>
</svg>
