<svg preserveAspectRatio="none" width="100%" height="100%" overflow="visible" style="display: block;" viewBox="0 0 9.47918 25" fill="none" xmlns="http://www.w3.org/2000/svg">
<g id="Icon">
<path id="Vector" d="M1.89583 24.0521V0.947916C1.89583 0.424397 1.47144 0 0.947917 0C0.424397 0 0 0.424397 0 0.947917V24.0521C0 24.5756 0.424397 25 0.947917 25C1.47144 25 1.89583 24.5756 1.89583 24.0521Z" fill="var(--fill-0, white)" fill-opacity="0.5"/>
<path id="Vector_2" d="M5.68749 24.0521V0.947916C5.68749 0.424397 5.26309 0 4.73957 0C4.21605 0 3.79166 0.424397 3.79166 0.947917V24.0521C3.79166 24.5756 4.21605 25 4.73957 25C5.26309 25 5.68749 24.5756 5.68749 24.0521Z" fill="var(--fill-0, white)" fill-opacity="0.4"/>
<path id="Vector_3" d="M9.47918 24.0521V0.947916C9.47918 0.424397 9.05478 0 8.53126 0C8.00774 0 7.58334 0.424397 7.58334 0.947917V24.0521C7.58334 24.5756 8.00774 25 8.53126 25C9.05478 25 9.47918 24.5756 9.47918 24.0521Z" fill="var(--fill-0, white)" fill-opacity="0.3"/>
</g>
</svg>
