<svg width="640" height="252" viewBox="0 0 640 252" fill="none" xmlns="http://www.w3.org/2000/svg">
<path d="M75.68 177.44C74.5067 177.44 73.6 177.173 72.96 176.64C72.32 176.213 72 175.733 72 175.2C72 174.347 72.3733 173.707 73.12 173.28C73.8667 172.747 74.6133 172.373 75.36 172.16C79.2 171.2 82.0267 170.027 83.84 168.64C85.6533 167.147 86.56 164.747 86.56 161.44V87.84C86.56 85.3867 86.24 83.52 85.6 82.24C85.0667 80.96 84.0533 80 82.56 79.36C81.1733 78.6133 79.0933 77.9733 76.32 77.44C73.5467 76.9067 72.16 75.7867 72.16 74.08C72.16 73.44 72.5333 72.96 73.28 72.64C74.0267 72.2133 74.88 72 75.84 72C78.5067 72 81.0133 72.0533 83.36 72.16C85.8133 72.2667 88.16 72.3733 90.4 72.48C92.64 72.5867 94.88 72.64 97.12 72.64C99.5733 72.64 102.027 72.5867 104.48 72.48C107.04 72.3733 109.6 72.2667 112.16 72.16C114.827 72.0533 117.387 72 119.84 72C120.907 72 121.76 72.2133 122.4 72.64C123.04 72.96 123.36 73.4933 123.36 74.24C123.36 75.0933 122.987 75.7867 122.24 76.32C121.6 76.7467 120.64 77.12 119.36 77.44C115.2 78.5067 112.107 79.68 110.08 80.96C108.16 82.1333 107.2 84.2667 107.2 87.36V160.48C107.2 163.573 107.893 165.867 109.28 167.36C110.667 168.747 113.28 169.44 117.12 169.44H134.56C137.013 169.44 139.253 169.013 141.28 168.16C143.307 167.307 144.96 166.24 146.24 164.96C148.16 163.253 149.76 161.44 151.04 159.52C152.32 157.6 153.547 155.36 154.72 152.8C155.467 151.2 156.16 149.973 156.8 149.12C157.44 148.267 158.08 147.84 158.72 147.84C159.467 147.84 160 148.213 160.32 148.96C160.64 149.6 160.8 150.293 160.8 151.04C160.8 151.147 160.747 151.467 160.64 152C160.533 152.533 160.48 152.96 160.48 153.28C159.627 156.373 158.88 159.04 158.24 161.28C157.707 163.52 157.227 165.707 156.8 167.84C156.48 169.867 156.16 172.107 155.84 174.56C155.733 175.307 155.52 176 155.2 176.64C154.88 177.173 154.24 177.44 153.28 177.44C150.08 177.44 146.24 177.387 141.76 177.28C137.28 177.173 132.533 177.067 127.52 176.96C122.507 176.96 117.44 176.907 112.32 176.8C107.307 176.693 102.56 176.64 98.08 176.64C95.7333 176.64 93.0133 176.693 89.92 176.8C86.9333 176.907 84.1067 177.013 81.44 177.12C78.7733 177.333 76.8533 177.44 75.68 177.44Z" fill="black"/>
<path d="M207.994 179.84C207.14 179.84 206.714 179.36 206.714 178.4C206.714 177.227 206.82 175.573 207.034 173.44C207.354 171.307 207.514 169.6 207.514 168.32C207.514 168 207.46 167.733 207.354 167.52C207.354 167.2 207.354 166.987 207.354 166.88C204.047 170.507 200.154 173.44 195.674 175.68C191.3 177.92 186.66 179.04 181.754 179.04C178.34 179.04 175.247 178.133 172.474 176.32C169.807 174.507 167.674 172 166.074 168.8C164.58 165.6 163.834 161.867 163.834 157.6V126.88C163.834 124.427 163.354 122.507 162.394 121.12C161.434 119.627 159.727 118.507 157.274 117.76C156.634 117.653 156.047 117.387 155.514 116.96C155.087 116.533 154.874 115.893 154.874 115.04C154.874 114.187 155.087 113.547 155.514 113.12C156.047 112.693 156.634 112.427 157.274 112.32C161.54 112.107 165.22 111.733 168.314 111.2C171.407 110.56 174.714 109.813 178.234 108.96C178.66 108.747 179.087 108.587 179.514 108.48C179.94 108.373 180.367 108.32 180.794 108.32C182.18 108.32 182.82 109.067 182.714 110.56C182.394 113.013 182.127 115.093 181.914 116.8C181.7 118.4 181.594 120.427 181.594 122.88V153.76C181.594 156.32 182.074 158.613 183.034 160.64C183.994 162.667 185.327 164.267 187.034 165.44C188.74 166.613 190.607 167.253 192.634 167.36C194.66 167.36 196.527 167.147 198.234 166.72C200.047 166.293 201.807 165.333 203.514 163.84C204.367 163.2 205.327 162.027 206.394 160.32C207.46 158.507 207.994 156.16 207.994 153.28V126.4C207.994 124.373 207.514 122.773 206.554 121.6C205.7 120.32 204.527 119.36 203.034 118.72C201.647 118.08 200.207 117.76 198.714 117.76C197.54 117.653 196.634 117.387 195.994 116.96C195.354 116.533 195.034 115.68 195.034 114.4C195.034 113.333 195.407 112.587 196.154 112.16C196.9 111.733 197.754 111.52 198.714 111.52C203.407 111.2 207.194 110.933 210.074 110.72C212.954 110.507 215.354 110.24 217.274 109.92C219.3 109.6 221.274 109.173 223.194 108.64C223.514 108.533 223.834 108.48 224.154 108.48C224.58 108.373 224.9 108.32 225.114 108.32C226.607 108.32 227.354 108.907 227.354 110.08C227.354 110.4 227.3 110.773 227.194 111.2C227.194 111.52 227.087 111.893 226.874 112.32C226.767 112.64 226.607 113.547 226.394 115.04C226.287 116.533 226.127 118.08 225.914 119.68C225.807 121.28 225.754 122.507 225.754 123.36V160.48C225.754 163.04 226.02 164.8 226.554 165.76C227.194 166.72 227.887 167.2 228.634 167.2C229.274 167.2 230.18 167.2 231.354 167.2C232.634 167.093 233.54 167.04 234.074 167.04C234.927 167.04 235.62 167.253 236.154 167.68C236.687 168.107 236.954 168.8 236.954 169.76C236.954 170.72 236.74 171.467 236.314 172C235.994 172.427 235.354 172.693 234.394 172.8C229.594 173.227 225.327 174.08 221.594 175.36C217.86 176.533 214.607 177.707 211.834 178.88C211.194 179.093 210.5 179.307 209.754 179.52C209.114 179.733 208.527 179.84 207.994 179.84Z" fill="black"/>
<path d="M234.709 177.12C233.962 177.12 233.215 176.96 232.469 176.64C231.829 176.32 231.509 175.787 231.509 175.04C231.509 174.187 231.882 173.547 232.629 173.12C233.375 172.693 234.229 172.32 235.189 172C236.682 171.467 238.122 170.88 239.509 170.24C240.895 169.493 241.589 168.053 241.589 165.92V130.08C241.589 127.627 241.269 125.493 240.629 123.68C239.989 121.76 238.495 120.64 236.149 120.32C235.722 120.213 235.349 120 235.029 119.68C234.709 119.253 234.549 118.56 234.549 117.6C234.549 116.32 235.029 115.52 235.989 115.2C238.762 114.56 241.375 113.813 243.829 112.96C246.389 112.107 248.789 111.147 251.029 110.08C253.375 109.013 255.509 107.947 257.429 106.88C257.749 106.667 258.069 106.453 258.389 106.24C258.709 106.027 259.029 105.92 259.349 105.92C260.202 105.92 260.629 106.453 260.629 107.52C260.629 108.373 260.469 109.867 260.149 112C259.935 114.027 259.829 115.787 259.829 117.28C259.829 118.347 259.935 118.987 260.149 119.2H260.469C263.455 116.32 266.869 113.813 270.709 111.68C274.655 109.547 279.295 108.48 284.629 108.48C288.042 108.48 291.082 109.547 293.749 111.68C296.522 113.707 298.655 116.587 300.149 120.32H300.789C303.989 116.693 307.669 113.813 311.829 111.68C315.989 109.547 320.575 108.48 325.589 108.48C329.002 108.48 331.989 109.493 334.549 111.52C337.109 113.44 339.135 116.107 340.629 119.52C342.122 122.933 342.869 126.827 342.869 131.2V166.08C342.869 168.213 343.509 169.6 344.789 170.24C346.069 170.88 347.509 171.467 349.109 172C350.069 172.32 350.869 172.693 351.509 173.12C352.255 173.547 352.629 174.187 352.629 175.04C352.629 175.68 352.362 176.213 351.829 176.64C351.295 176.96 350.549 177.12 349.589 177.12C347.455 177.12 345.535 177.013 343.829 176.8C342.229 176.693 340.682 176.587 339.189 176.48C337.695 176.373 335.989 176.32 334.069 176.32C332.255 176.32 330.602 176.373 329.109 176.48C327.722 176.587 326.282 176.693 324.789 176.8C323.295 177.013 321.482 177.12 319.349 177.12C318.495 177.12 317.802 176.96 317.269 176.64C316.735 176.213 316.469 175.68 316.469 175.04C316.469 174.187 316.789 173.547 317.429 173.12C318.069 172.693 318.869 172.32 319.829 172C321.322 171.573 322.549 171.04 323.509 170.4C324.469 169.653 324.949 168.373 324.949 166.56V133.6C324.949 130.933 324.522 128.587 323.669 126.56C322.815 124.533 321.589 122.933 319.989 121.76C318.495 120.48 316.789 119.84 314.869 119.84C313.055 119.84 311.189 120.16 309.269 120.8C307.455 121.333 305.695 122.293 303.989 123.68C301.962 125.387 300.949 128.16 300.949 132V166.08C300.949 168.213 301.482 169.653 302.549 170.4C303.722 171.04 305.109 171.573 306.709 172C307.562 172.32 308.309 172.693 308.949 173.12C309.695 173.547 310.069 174.187 310.069 175.04C310.069 175.68 309.749 176.213 309.109 176.64C308.575 176.96 307.935 177.12 307.189 177.12C305.055 177.12 303.189 177.013 301.589 176.8C300.095 176.693 298.655 176.587 297.269 176.48C295.882 176.373 294.229 176.32 292.309 176.32C290.495 176.32 288.842 176.373 287.349 176.48C285.962 176.587 284.469 176.693 282.869 176.8C281.375 177.013 279.562 177.12 277.429 177.12C276.682 177.12 275.989 176.96 275.349 176.64C274.815 176.213 274.549 175.68 274.549 175.04C274.549 174.187 274.869 173.547 275.509 173.12C276.255 172.693 277.055 172.32 277.909 172C279.402 171.573 280.629 171.04 281.589 170.4C282.655 169.653 283.189 168.373 283.189 166.56V133.6C283.189 130.933 282.762 128.587 281.909 126.56C281.055 124.533 279.829 122.933 278.229 121.76C276.735 120.48 275.029 119.84 273.109 119.84C271.295 119.84 269.482 120.16 267.669 120.8C265.855 121.333 263.989 122.293 262.069 123.68C260.255 125.067 259.349 127.733 259.349 131.68V166.08C259.349 168 259.775 169.333 260.629 170.08C261.589 170.827 262.869 171.467 264.469 172C265.322 172.32 266.069 172.693 266.709 173.12C267.455 173.547 267.829 174.187 267.829 175.04C267.829 175.68 267.562 176.213 267.029 176.64C266.495 176.96 265.802 177.12 264.949 177.12C262.815 177.12 261.002 177.013 259.509 176.8C258.015 176.693 256.575 176.587 255.189 176.48C253.802 176.373 252.149 176.32 250.229 176.32C248.415 176.32 246.709 176.373 245.109 176.48C243.615 176.587 242.015 176.693 240.309 176.8C238.709 177.013 236.842 177.12 234.709 177.12Z" fill="black"/>
<path d="M382.849 178.88C376.555 178.88 370.902 177.493 365.889 174.72C360.875 171.84 356.875 167.893 353.889 162.88C350.902 157.867 349.409 152.213 349.409 145.92C349.409 141.013 350.369 136.32 352.289 131.84C354.209 127.36 356.822 123.36 360.129 119.84C363.435 116.32 367.329 113.547 371.809 111.52C376.289 109.387 381.089 108.32 386.209 108.32C392.715 108.32 398.529 109.867 403.649 112.96C408.875 115.947 413.035 119.947 416.129 124.96C419.222 129.973 420.769 135.467 420.769 141.44C420.769 148.053 419.329 154.24 416.449 160C413.675 165.653 409.462 170.24 403.809 173.76C398.262 177.173 391.275 178.88 382.849 178.88ZM386.049 172.64C388.715 172.64 391.062 172.107 393.089 171.04C395.222 169.973 396.929 168.32 398.209 166.08C399.489 163.84 400.342 160.907 400.769 157.28C401.302 153.547 401.569 149.547 401.569 145.28C401.569 139.627 400.822 134.507 399.329 129.92C397.835 125.333 395.755 121.653 393.089 118.88C390.422 116.107 387.275 114.72 383.649 114.72C381.622 114.72 379.755 115.093 378.049 115.84C376.449 116.48 374.955 117.6 373.569 119.2C371.649 121.44 370.315 124.533 369.569 128.48C368.929 132.32 368.609 136.8 368.609 141.92C368.609 147.04 369.355 151.947 370.849 156.64C372.449 161.333 374.529 165.173 377.089 168.16C379.755 171.147 382.742 172.64 386.049 172.64Z" fill="black"/>
<path d="M421.729 177.12C420.875 177.12 420.129 176.96 419.489 176.64C418.849 176.213 418.529 175.68 418.529 175.04C418.529 174.187 418.849 173.547 419.489 173.12C420.235 172.693 421.142 172.32 422.209 172C424.449 171.36 425.995 170.613 426.849 169.76C427.809 168.8 428.289 167.52 428.289 165.92V129.92C428.289 127.467 427.915 125.44 427.169 123.84C426.529 122.133 425.089 121.013 422.849 120.48C422.422 120.267 421.995 120 421.569 119.68C421.142 119.253 420.929 118.667 420.929 117.92C420.929 116.533 421.515 115.68 422.689 115.36C425.889 114.507 429.355 113.387 433.089 112C436.822 110.507 439.969 109.067 442.529 107.68C443.062 107.36 443.649 107.04 444.289 106.72C444.929 106.4 445.409 106.24 445.729 106.24C446.582 106.24 447.009 106.773 447.009 107.84C447.009 108.267 446.955 109.227 446.849 110.72C446.849 112.213 446.795 113.867 446.689 115.68C446.689 117.387 446.635 118.933 446.529 120.32C446.529 120.96 446.689 121.28 447.009 121.28C448.715 119.04 450.635 116.96 452.769 115.04C454.902 113.12 457.142 111.52 459.489 110.24C461.942 108.96 464.395 108.32 466.849 108.32C469.942 108.32 472.235 108.96 473.729 110.24C475.329 111.52 476.129 113.12 476.129 115.04C476.129 116.533 475.702 118.133 474.849 119.84C474.102 121.547 473.089 123.04 471.809 124.32C470.635 125.493 469.302 126.08 467.809 126.08C466.955 126.08 466.049 125.92 465.089 125.6C464.129 125.173 463.169 124.693 462.209 124.16C461.249 123.733 460.235 123.307 459.169 122.88C458.209 122.453 457.302 122.24 456.449 122.24C453.782 122.24 451.382 123.253 449.249 125.28C447.115 127.2 446.049 131.04 446.049 136.8V164.96C446.049 166.88 446.742 168.373 448.129 169.44C449.515 170.4 451.649 171.307 454.529 172.16C455.702 172.48 456.555 172.853 457.089 173.28C457.729 173.6 458.049 174.187 458.049 175.04C458.049 176.427 457.089 177.12 455.169 177.12C451.969 177.12 448.929 176.96 446.049 176.64C443.275 176.427 440.502 176.32 437.729 176.32C435.915 176.32 434.155 176.373 432.449 176.48C430.849 176.587 429.195 176.693 427.489 176.8C425.782 177.013 423.862 177.12 421.729 177.12Z" fill="black"/>
<path d="M472.72 177.12C471.867 177.12 471.173 176.96 470.64 176.64C470.107 176.213 469.84 175.68 469.84 175.04C469.84 174.187 470.16 173.547 470.8 173.12C471.44 172.693 472.187 172.373 473.04 172.16C475.6 171.52 477.413 170.827 478.48 170.08C479.653 169.333 480.24 168.053 480.24 166.24V131.52C480.24 128.107 479.707 125.547 478.64 123.84C477.573 122.133 475.76 121.067 473.2 120.64C472.667 120.533 472.24 120.267 471.92 119.84C471.6 119.307 471.44 118.72 471.44 118.08C471.44 116.587 472.027 115.787 473.2 115.68C478.32 114.613 482.747 113.173 486.48 111.36C490.32 109.44 493.253 107.947 495.28 106.88C496.773 106.133 497.733 105.76 498.16 105.76C499.333 105.76 499.92 106.293 499.92 107.36C499.813 108.853 499.6 110.933 499.28 113.6C498.96 116.16 498.64 118.933 498.32 121.92C498.107 124.8 498 127.52 498 130.08V166.08C498 167.68 498.587 168.907 499.76 169.76C500.933 170.613 502.8 171.413 505.36 172.16C506.213 172.48 506.96 172.853 507.6 173.28C508.24 173.6 508.56 174.187 508.56 175.04C508.56 176.32 507.653 176.96 505.84 176.96C503.813 176.96 501.84 176.907 499.92 176.8C498.107 176.693 496.293 176.587 494.48 176.48C492.773 176.373 490.96 176.32 489.04 176.32C487.227 176.32 485.467 176.373 483.76 176.48C482.053 176.587 480.293 176.693 478.48 176.8C476.773 177.013 474.853 177.12 472.72 177.12Z" fill="black"/>
<path d="M520.607 178.88C518.047 178.88 515.594 178.187 513.247 176.8C511.008 175.413 509.194 173.6 507.807 171.36C506.421 169.12 505.727 166.827 505.727 164.48C505.727 160.853 506.794 157.92 508.927 155.68C511.061 153.333 514.261 151.253 518.527 149.44L533.408 143.04C535.541 142.187 536.821 141.387 537.247 140.64C537.781 139.893 538.047 138.507 538.047 136.48L538.367 127.04C538.474 124.053 537.834 121.653 536.447 119.84C535.167 118.027 533.194 117.12 530.527 117.12C529.141 117.12 527.701 117.387 526.207 117.92C524.714 118.453 523.541 119.147 522.688 120C522.261 120.427 521.941 121.013 521.727 121.76C521.621 122.4 521.568 123.04 521.568 123.68C521.568 124.213 521.568 124.907 521.568 125.76C521.674 126.507 521.727 127.2 521.727 127.84C521.727 128.48 520.927 129.28 519.327 130.24C517.727 131.2 515.914 132.053 513.887 132.8C511.861 133.547 510.154 133.92 508.767 133.92C508.021 133.92 507.434 133.653 507.007 133.12C506.581 132.587 506.367 131.947 506.367 131.2C506.367 129.493 506.901 127.787 507.967 126.08C509.141 124.267 510.954 122.347 513.408 120.32C516.074 118.08 519.007 116.107 522.207 114.4C525.408 112.587 528.501 111.147 531.487 110.08C534.581 109.013 537.247 108.48 539.487 108.48C544.607 108.48 548.714 110.187 551.807 113.6C554.901 116.907 556.394 121.28 556.288 126.72L555.487 160.96C555.381 163.307 555.807 165.28 556.767 166.88C557.834 168.48 559.114 169.28 560.607 169.28C562.847 169.28 564.661 168.64 566.047 167.36C566.474 166.933 566.847 166.72 567.167 166.72C567.701 166.72 568.128 166.933 568.448 167.36C568.874 167.68 569.087 168.107 569.087 168.64C569.087 169.813 568.234 171.253 566.527 172.96C564.607 174.88 562.527 176.32 560.288 177.28C558.154 178.347 556.021 178.88 553.887 178.88C548.234 178.88 543.647 175.947 540.128 170.08H539.647C536.128 173.173 532.874 175.413 529.887 176.8C527.007 178.187 523.914 178.88 520.607 178.88ZM529.408 169.28C530.901 169.28 532.181 169.067 533.247 168.64C534.314 168.107 535.221 167.413 535.967 166.56C536.394 166.027 536.714 165.387 536.927 164.64C537.247 163.893 537.461 162.827 537.568 161.44L537.887 151.2C537.994 150.133 537.888 149.44 537.568 149.12C537.247 148.693 536.874 148.48 536.447 148.48C536.234 148.48 535.914 148.533 535.487 148.64C535.061 148.64 534.581 148.8 534.047 149.12C530.101 150.72 527.274 152.427 525.568 154.24C523.861 156.053 523.007 158.4 523.007 161.28C523.007 164.16 523.701 166.24 525.087 167.52C526.474 168.693 527.914 169.28 529.408 169.28Z" fill="black"/>
<path d="M486.781 73.4032C487.668 72.3851 489.226 72.3851 490.113 73.4032L492.008 75.5784C492.404 76.0323 492.96 76.3061 493.555 76.3386L496.402 76.4947C497.734 76.5678 498.706 77.8115 498.479 79.154L497.995 82.0226C497.894 82.6212 498.031 83.2362 498.377 83.7308L500.033 86.1007C500.807 87.2098 500.461 88.7607 499.291 89.4167L496.792 90.8185C496.271 91.1111 495.885 91.6043 495.722 92.1884L494.939 94.9875C494.573 96.2975 493.169 96.9877 491.937 96.4633L489.305 95.3428C488.756 95.1089 488.138 95.1089 487.589 95.3428L484.957 96.4633C483.726 96.9877 482.322 96.2975 481.955 94.9875L481.173 92.1884C481.009 91.6043 480.624 91.1111 480.103 90.8185L477.603 89.4167C476.434 88.7607 476.087 87.2098 476.862 86.1007L478.518 83.7308C478.863 83.2362 479.001 82.6212 478.9 82.0226L478.415 79.154C478.188 77.8115 479.16 76.5678 480.493 76.4947L483.34 76.3386C483.934 76.3061 484.491 76.0323 484.886 75.5784L486.781 73.4032Z" fill="black"/>
</svg>
